<?xml version="1.0" encoding="utf-8"?>
<!-- Generator: Adobe Illustrator 25.2.1, SVG Export Plug-In . SVG Version: 6.00 Build 0)  -->
<svg version="1.1" id="Camada_1" xmlns="http://www.w3.org/2000/svg" xmlns:xlink="http://www.w3.org/1999/xlink" x="0px" y="0px"
	 viewBox="0 0 500 500" style="enable-background:new 0 0 500 500;" xml:space="preserve">
<style type="text/css">
	.st0{fill:#FEFEFE;}
</style>
<g>
	<path class="st0" d="M119.8,344.3c22.1,11.3,42.7,21.8,65.9,33.6c-23.1,10.2-43.7,19.5-64.7,28.3c-6.1,2.5-68-27.3-68.1-33.1
		c-0.2-22,0.4-44.1,1.8-66.1c0.4-5.3,8-6,12.7-8.2c100.7-47.4,201.4-94.8,302.1-142.1c2.4-1.1,4.6-2.4,8.8-4.6
		c-22.1-11.3-42.9-22.1-65.3-33.6c21.7-9.7,41.2-18.2,60.5-27.3c5.8-2.7,10.6-2.9,15.9,0.7c3,2.1,6.5,3.4,9.7,5.1
		c52.3,26.7,52.3,27.2,45.6,86.9c-1.1,9.5-7.5,10.7-13.1,13.3c-98.8,46.6-197.7,93-296.5,139.4C130.6,338.9,126,341.2,119.8,344.3z"
		/>
	<path class="st0" d="M121.4,153.3c0,30.2-0.4,58.5,0.2,86.8c0.2,8.8-2.6,13-10.7,16.2c-18.8,7.6-37.2,16.2-55.5,24.3
		c-5.1-3.8-2.9-8.3-2.9-12c-0.2-45.7,0.2-91.5-0.4-137.2c-0.1-9.7,2.2-15.1,11.8-18.7c19.5-7.3,38.7-22.8,57.7-22.2
		c19,0.6,37.5,16.6,56.1,26c30.3,15.4,60.6,31,90.9,46.5c0.9,0.5,1.7,1.1,4,2.6c-21.7,9.5-42.7,18.4-63.4,27.9
		c-6.2,2.8-10.1-1.2-14.4-3.3C170.7,178.2,146.7,166,121.4,153.3z"/>
	<path class="st0" d="M224.8,331.8c22.6-10.1,42.8-18.7,62.6-28.2c6.6-3.1,11.1-0.2,16.1,2.3c24.1,12.2,48.1,24.6,73.6,37.6
		c0-30.5,0.3-59.2-0.2-88c-0.1-8,2.1-12.1,9.8-15.1c17-6.7,33.6-14.4,50.2-22c6.5-2.9,9.3-2.5,9.3,5.7c-0.2,48.9-0.2,97.7,0,146.6
		c0,6.5-2.7,9-8.3,11.3c-17.9,7.3-35.6,15.1-53.2,23c-5.2,2.4-9.5,2.5-14.8-0.2C322.4,380.7,274.6,356.8,224.8,331.8z"/>
	<path class="st0" d="M167.9,67.3c26.3-14.1,51.1-27,75.6-40.7c6.1-3.4,10-0.7,14.4,1.7c23.6,12.5,47,25.3,72.6,39.1
		C312,79.9,294.4,91.7,277,103.7c-6.8,4.7-10.7-1.4-15.2-3.8c-8.2-4.4-15.5-7.8-24-0.4c-8.2,7.1-15.9,5.6-24.6-1.1
		C199.2,87.6,184,78.3,167.9,67.3z"/>
	<path class="st0" d="M330.5,432.8c-26.3,14-51.2,27-75.7,40.6c-5.2,2.9-8.7,1.3-13-1c-23.9-12.9-47.9-25.7-74-39.7
		c18.6-12.6,36.2-24.3,53.6-36.4c6.7-4.7,10.8,1.4,15.2,3.8c8.3,4.5,15.6,7.7,24,0.4c8.2-7.1,16-5.4,24.6,1.2
		C299.4,412.5,314.5,421.9,330.5,432.8z"/>
</g>
</svg>
